<svg width="1920" height="915" viewBox="0 0 1920 915" fill="none" xmlns="http://www.w3.org/2000/svg">
<g clip-path="url(#clip0_87_1317)">
<rect y="-0.707107" width="1478.97" height="1478.97" rx="49.5" transform="matrix(0.707107 -0.707107 -0.707107 -0.707107 958.5 859.793)" fill="#100F38" stroke="url(#paint0_linear_87_1317)"/>
<mask id="mask0_87_1317" style="mask-type:alpha" maskUnits="userSpaceOnUse" x="-67" y="-1212" width="2052" height="2053">
<rect width="1479.97" height="1479.97" rx="50" transform="matrix(0.707107 -0.707107 -0.707107 -0.707107 959 861)" fill="#100F38"/>
</mask>
<g mask="url(#mask0_87_1317)">
<mask id="mask1_87_1317" style="mask-type:alpha" maskUnits="userSpaceOnUse" x="486" y="0" width="1433" height="948">
<path d="M1384.71 0H1869C1896.61 0 1919 22.3857 1919 50V948H536.711C492.165 948 469.857 894.143 501.355 862.645L1349.36 14.6447C1358.73 5.26784 1371.45 0 1384.71 0Z" fill="url(#paint1_linear_87_1317)"/>
</mask>
<g mask="url(#mask1_87_1317)">
<rect x="1708.85" y="1635" width="1400" height="1400" transform="rotate(-135 1708.85 1635)" fill="url(#paint2_linear_87_1317)"/>
</g>
<mask id="mask2_87_1317" style="mask-type:alpha" maskUnits="userSpaceOnUse" x="-1" y="0" width="1433" height="948">
<path d="M533.289 0H49C21.3858 0 -1 22.3857 -1 50V948H1381.29C1425.83 948 1448.14 894.143 1416.64 862.645L568.645 14.6447C559.268 5.26784 546.55 0 533.289 0Z" fill="url(#paint3_linear_87_1317)"/>
</mask>
<g mask="url(#mask2_87_1317)">
<rect x="208.949" y="1635" width="1400" height="1400" transform="rotate(-135 208.949 1635)" fill="url(#paint4_linear_87_1317)"/>
</g>
</g>
</g>
<defs>
<linearGradient id="paint0_linear_87_1317" x1="0" y1="0" x2="722.31" y2="722.31" gradientUnits="userSpaceOnUse">
<stop stop-color="#7600BF"/>
<stop offset="1" stop-color="#1C416C"/>
</linearGradient>
<linearGradient id="paint1_linear_87_1317" x1="1167.5" y1="0" x2="1167.5" y2="948" gradientUnits="userSpaceOnUse">
<stop stop-color="white"/>
<stop offset="1" stop-color="white" stop-opacity="0"/>
</linearGradient>
<linearGradient id="paint2_linear_87_1317" x1="3108.81" y1="1984.42" x2="3108.81" y2="2553.64" gradientUnits="userSpaceOnUse">
<stop stop-color="white" stop-opacity="0"/>
<stop offset="1" stop-color="#9733E5" stop-opacity="0.05"/>
<stop offset="1" stop-color="white" stop-opacity="0.1"/>
</linearGradient>
<linearGradient id="paint3_linear_87_1317" x1="750.5" y1="0" x2="750.5" y2="948" gradientUnits="userSpaceOnUse">
<stop stop-color="white"/>
<stop offset="1" stop-color="white" stop-opacity="0"/>
</linearGradient>
<linearGradient id="paint4_linear_87_1317" x1="567.417" y1="3035.11" x2="1123.48" y2="3050.54" gradientUnits="userSpaceOnUse">
<stop stop-color="white" stop-opacity="0"/>
<stop offset="1" stop-color="#9733E5" stop-opacity="0.05"/>
<stop offset="1" stop-color="white" stop-opacity="0.1"/>
</linearGradient>
<clipPath id="clip0_87_1317">
<rect width="1920" height="915" fill="white"/>
</clipPath>
</defs>
</svg>
