<svg width="20" height="20" viewBox="0 0 20 20" fill="none" xmlns="http://www.w3.org/2000/svg">
<path fill-rule="evenodd" clip-rule="evenodd" d="M15.7491 17.4397C15.7491 16.6573 16.3833 16.0231 17.1657 16.0231C17.9481 16.0231 18.5823 16.6573 18.5823 17.4397C18.5823 18.2221 17.9481 18.8563 17.1657 18.8563C16.3833 18.8563 15.7491 18.2221 15.7491 17.4397Z" fill="white"/>
<path fill-rule="evenodd" clip-rule="evenodd" d="M0 1.69059C0 1.3224 0.298477 1.02393 0.666667 1.02393H3.66649C3.98998 1.02393 4.26679 1.25616 4.32301 1.57474L6.47568 13.7732H17.9157C18.2838 13.7732 18.5823 14.0717 18.5823 14.4398C18.5823 14.808 18.2838 15.1065 17.9157 15.1065H5.91636C5.59286 15.1065 5.31605 14.8743 5.25984 14.5557L3.10717 2.35726H0.666667C0.298477 2.35726 0 2.05878 0 1.69059Z" fill="white"/>
<path fill-rule="evenodd" clip-rule="evenodd" d="M18.9581 3.27379C19.1121 3.27375 19.2642 3.30787 19.4035 3.3737C19.5429 3.43959 19.6659 3.53561 19.7637 3.65482C19.8615 3.77403 19.9316 3.91346 19.969 4.06306C20.0063 4.21262 20.01 4.36861 19.9798 4.51977L18.6298 11.2694C18.5826 11.5056 18.4549 11.7182 18.2685 11.8709C18.0823 12.0234 17.8489 12.1067 17.6082 12.1067H5.91637C5.54818 12.1067 5.2497 11.8082 5.2497 11.44C5.2497 11.0718 5.54818 10.7734 5.91637 10.7734H17.3693L18.6026 4.60712H4.41645C4.04826 4.60712 3.74979 4.30865 3.74979 3.94046C3.74979 3.57227 4.04826 3.27379 4.41645 3.27379H18.9581Z" fill="white"/>
<path fill-rule="evenodd" clip-rule="evenodd" d="M5.33333 17.4397C5.33333 16.6573 5.96758 16.0231 6.74996 16.0231C7.53234 16.0231 8.16658 16.6573 8.16658 17.4397C8.16658 18.2221 7.53234 18.8563 6.74996 18.8563C5.96758 18.8563 5.33333 18.2221 5.33333 17.4397Z" fill="white"/>
</svg>
