<svg width="140" height="17" viewBox="0 0 140 17" fill="none" xmlns="http://www.w3.org/2000/svg">
<g clip-path="url(#clip0_115_2068)">
<path d="M123.248 16.7804C123.288 16.6822 123.327 16.6037 123.367 16.5252C123.546 16.172 123.705 15.7991 123.904 15.4458C124.241 14.8374 124.798 14.3664 125.454 14.1308C125.712 14.0327 125.99 13.9935 126.268 13.9935C128.375 13.9935 130.461 13.9935 132.568 13.9935C132.667 13.9935 132.767 13.9935 132.866 13.9738C133.045 13.9542 133.204 13.8365 133.263 13.6598C133.323 13.5813 133.283 13.4636 133.204 13.4047C133.184 13.3851 133.164 13.3851 133.144 13.3851C133.104 13.3654 133.065 13.3654 133.025 13.3654C132.687 13.3458 132.349 13.3065 132.011 13.2869C131.674 13.2673 131.316 13.228 130.978 13.1888L130.283 13.1299L129.17 13.0318C128.931 13.0122 128.693 12.9925 128.454 12.9729C128.077 12.9337 127.699 12.914 127.302 12.8551C127.043 12.8159 126.805 12.7374 126.606 12.5804C126.249 12.3449 126.03 11.9523 126.03 11.5402C126.03 11.1084 126.129 10.6963 126.328 10.3037C126.487 9.9701 126.646 9.63645 126.805 9.28318C126.984 8.92991 127.202 8.61589 127.461 8.3215C127.878 7.83085 128.415 7.45795 129.011 7.20281C129.448 7.00655 129.945 6.90842 130.422 6.90842H139.98C139.98 6.94767 139.96 6.98692 139.94 7.02617C139.782 7.37944 139.623 7.73272 139.444 8.06636C139.066 8.85141 138.371 9.42057 137.516 9.61683C137.337 9.65608 137.158 9.67571 136.96 9.67571H130.879C130.819 9.67571 130.76 9.67571 130.7 9.67571C130.541 9.69533 130.382 9.77384 130.283 9.91122C130.263 9.93085 130.263 9.95047 130.243 9.9701C130.183 10.0682 130.203 10.186 130.302 10.2449C130.342 10.2645 130.362 10.2841 130.402 10.2841C130.561 10.3037 130.74 10.3234 130.899 10.3234L131.992 10.4215L133.104 10.5196L134.197 10.6178C134.575 10.657 134.953 10.6766 135.35 10.7159C135.608 10.7355 135.867 10.7748 136.105 10.8337C136.304 10.8925 136.483 10.9907 136.662 11.1084C136.94 11.3047 137.119 11.6187 137.158 11.9523C137.218 12.3841 137.139 12.7963 136.96 13.1888C136.84 13.4636 136.701 13.7383 136.582 14.0131C136.483 14.229 136.363 14.4645 136.244 14.6804C135.747 15.5439 134.953 16.1916 134.019 16.5449C133.621 16.6822 133.204 16.7608 132.786 16.7608L123.248 16.7804Z" fill="white"/>
<path d="M57.9276 6.90841H58.166C58.8019 6.90841 59.4577 6.88879 60.0936 6.90841C61.6834 6.94766 63.2533 6.92804 64.8431 6.92804C66.4329 6.92804 68.0028 6.92804 69.5926 6.92804C69.8907 6.92804 70.1689 6.98692 70.4471 7.08505C70.9836 7.28131 71.3215 7.77196 71.3215 8.3215C71.3215 8.73365 71.242 9.14579 71.0631 9.51869C70.9836 9.69533 70.9041 9.87196 70.8247 10.029C70.6458 10.4411 70.4272 10.8336 70.1887 11.2262C69.5131 12.286 68.4599 13.0318 67.2278 13.3458C67.1284 13.3654 67.0092 13.385 66.9098 13.4243C66.89 13.4832 66.9098 13.5617 66.9496 13.6206C67.188 14.2486 67.4265 14.8766 67.665 15.5047C67.8041 15.8579 67.9432 16.2308 68.0823 16.5841C68.1022 16.643 68.1419 16.6822 68.1022 16.7411C67.9631 16.7607 64.4655 16.7804 64.1674 16.7607C64.1078 16.7215 64.088 16.6626 64.0681 16.6037L62.3591 12.1093L62.1604 11.5794C62.1604 11.5402 62.1405 11.5206 62.1405 11.4813H62.3591C63.452 11.4813 64.5252 11.4813 65.6181 11.4813C65.8765 11.4813 66.1149 11.4028 66.3137 11.2458C66.4329 11.1673 66.5124 11.0495 66.572 10.9318C66.6714 10.7551 66.7707 10.5589 66.8701 10.3822C66.9098 10.3234 66.9297 10.2449 66.9496 10.186C67.0092 10.0093 66.9098 9.83271 66.731 9.79346C66.7111 9.79346 66.7111 9.79346 66.6912 9.79346C66.6117 9.77383 66.5322 9.75421 66.4528 9.75421H62.061C62.0014 9.79346 61.9418 9.87196 61.9219 9.95047C61.7828 10.2449 61.6437 10.5393 61.5046 10.8336L61.0078 11.7757C60.7097 12.4037 60.4116 13.0121 60.1135 13.6402C59.9545 13.9738 59.7956 14.3075 59.6366 14.6215C59.5571 14.7785 59.4975 14.9551 59.4379 15.1318C59.3584 15.3673 59.3584 15.6028 59.418 15.8383C59.4975 16.1327 59.6763 16.3879 59.9347 16.5645L60.1334 16.7019C60.1533 16.7215 60.193 16.7607 60.2129 16.7804C60.1731 16.7804 60.1533 16.8 60.1135 16.8L54.8076 16.7804C54.8076 16.7411 54.8275 16.7019 54.8474 16.6822L55.3044 15.7009C55.6025 15.0925 55.9006 14.4645 56.1987 13.8561C56.3974 13.4439 56.5961 13.0318 56.7948 12.6393C57.0134 12.1682 57.232 11.6972 57.4705 11.2458C57.6295 10.9318 57.7686 10.6178 57.9276 10.3037C58.166 9.83271 58.4045 9.34206 58.6231 8.8514C58.7622 8.55701 58.8019 8.24299 58.7423 7.92897C58.6827 7.63458 58.5237 7.35981 58.2654 7.18318L57.9474 6.94766C57.9474 6.92804 57.9276 6.92804 57.9276 6.90841Z" fill="white"/>
<path d="M39.665 13.9738C40.1022 13.1103 40.4996 12.2467 40.9169 11.3832H43.9375C43.9176 11.4617 43.8978 11.5206 43.858 11.5794C43.6196 12.0701 43.401 12.5411 43.1625 13.0318C42.924 13.5224 42.7651 14.0327 42.7054 14.5626C42.6856 14.8178 42.6856 15.0729 42.7253 15.328C42.7452 15.4458 42.7253 15.5439 42.6856 15.6421C42.5266 15.9561 42.3875 16.2505 42.2484 16.5645C42.2285 16.6234 42.1888 16.7019 42.149 16.7608H41.9105H38.5919C36.9226 16.7608 35.2335 16.7608 33.5642 16.7608C33.1071 16.7608 32.6501 16.6626 32.2526 16.4664C31.736 16.2112 31.3981 15.7206 31.3783 15.1514C31.3385 14.6411 31.418 14.1309 31.6366 13.6598C31.7956 13.2869 31.9744 12.9337 32.1334 12.5804C32.3719 12.0701 32.6103 11.5402 32.8687 11.0299C33.0674 10.5785 33.3059 10.1271 33.5642 9.71496C33.7232 9.47945 33.902 9.24394 34.0809 9.02805C34.6373 8.38038 35.3328 7.85048 36.1079 7.47758C36.7239 7.16356 37.4194 6.98693 38.1149 6.94767C38.1944 6.94767 38.2541 6.94767 38.3335 6.94767H46.66C46.7395 6.92805 46.819 6.94767 46.8786 6.9673C46.8587 7.02618 46.8389 7.08506 46.819 7.12431C46.7793 7.20281 46.7395 7.28132 46.6998 7.37945C46.6203 7.57571 46.4812 7.73272 46.3222 7.85048C45.9446 8.18412 45.5869 8.55702 45.2888 8.96917C45.1497 9.1458 45.0305 9.34207 44.9113 9.5187C44.8715 9.59721 44.8119 9.63646 44.7324 9.65609C44.5536 9.69534 44.3747 9.71496 44.1959 9.73459C42.3676 9.73459 40.5592 9.73459 38.731 9.73459C37.9162 9.71496 37.1611 10.1467 36.7636 10.8533C36.6841 10.9907 36.6047 11.1477 36.545 11.2851C36.3066 11.7757 36.088 12.2467 35.8495 12.7374C35.7899 12.8552 35.7501 12.9729 35.7104 13.1103C35.5912 13.4636 35.77 13.8365 36.1277 13.9542C36.1873 13.9738 36.247 13.9935 36.2867 13.9935C36.4258 14.0131 36.545 14.0327 36.6841 14.0327C37.5983 14.0327 38.5124 14.0327 39.4265 14.0327C39.4861 13.9935 39.5656 13.9738 39.665 13.9738Z" fill="url(#paint0_linear_115_2068)"/>
<path d="M115.537 6.90842H115.657H115.776C119.73 6.94767 123.685 6.92804 127.64 6.92804H127.838L127.719 7.02617C127.52 7.20281 127.302 7.35982 127.103 7.55608C126.666 7.98786 126.288 8.49814 126.05 9.0673C125.97 9.2243 125.891 9.40094 125.811 9.55795C125.791 9.61683 125.752 9.65608 125.712 9.71496H119.691C119.492 10.0094 119.353 10.3234 119.234 10.657C119.273 10.657 119.293 10.6766 119.333 10.6766H125.215C125.215 10.7159 125.195 10.7551 125.195 10.7944C125.016 11.1477 124.857 11.5206 124.659 11.8738C124.361 12.4234 123.844 12.8159 123.228 12.9533C123.089 12.9925 122.95 12.9925 122.811 12.9925H118.399C118.001 12.9925 118.081 12.9729 117.922 13.2869C117.823 13.4832 117.743 13.6598 117.644 13.8561C117.624 13.8953 117.604 13.9346 117.604 13.9738C117.644 13.9935 117.684 13.9935 117.723 14.0131C117.783 14.0131 117.862 14.0131 117.922 14.0131H124.003C123.983 14.0523 123.963 14.072 123.943 14.1112C123.546 14.4449 123.248 14.8766 123.029 15.328C122.87 15.6617 122.711 15.9953 122.552 16.3486L122.433 16.6037C122.393 16.6822 122.354 16.7411 122.314 16.8196H115.041C114.762 16.8196 114.484 16.7804 114.226 16.6822C113.729 16.5252 113.391 16.0542 113.391 15.5439C113.391 15.2692 113.431 14.9944 113.51 14.7393C113.59 14.5234 113.669 14.3271 113.769 14.1308C114.027 13.6009 114.285 13.071 114.524 12.5411L115.299 10.9122C115.358 10.7551 115.438 10.6178 115.517 10.4608C115.756 9.95047 116.014 9.44019 116.253 8.92991C116.392 8.63552 116.432 8.3215 116.372 8.00748C116.312 7.71309 116.153 7.45795 115.915 7.26169C115.816 7.10468 115.696 7.02617 115.537 6.90842Z" fill="white"/>
<path d="M53.1185 11.3832H56.4769C56.4372 11.5598 53.973 16.643 53.8935 16.7804H53.7147C51.0518 16.7804 48.3889 16.7804 45.726 16.7804C45.3683 16.7804 45.0305 16.7215 44.6927 16.6037C44.2555 16.4664 43.8978 16.1523 43.6991 15.7598C43.6196 15.5832 43.56 15.4065 43.5401 15.2103C43.5003 14.7393 43.56 14.2682 43.7388 13.8365C43.8183 13.6009 43.9177 13.385 44.0369 13.1495C44.3747 12.4234 44.7324 11.6972 45.0703 10.971C45.2292 10.657 45.3683 10.343 45.5273 10.029C46.0042 9.20467 46.6402 8.49813 47.435 7.96823C48.0908 7.51682 48.8261 7.18318 49.621 7.02617C49.939 6.96729 50.2768 6.92804 50.6146 6.92804C52.4826 6.92804 54.3506 6.92804 56.2186 6.92804C56.3776 6.92804 56.5365 6.96729 56.6756 7.06542C56.9936 7.30094 57.3116 7.4972 57.6494 7.71309H57.6693C57.9276 7.85047 58.027 8.14486 57.9077 8.4C57.8878 8.45888 57.868 8.53739 57.8282 8.59626C57.7289 8.81215 57.6096 9.02804 57.5103 9.24393C57.4705 9.34206 57.391 9.40094 57.3116 9.44019C57.0333 9.57757 56.7154 9.65608 56.3974 9.6757C54.5692 9.6757 52.7608 9.6757 50.9326 9.6757C49.9787 9.6757 49.303 10.1271 48.8658 10.9318C48.7069 11.2262 48.5876 11.5206 48.4287 11.815C48.2697 12.1093 48.1504 12.4234 47.9915 12.7178C47.8921 12.914 47.8325 13.1299 47.8524 13.3458C47.8524 13.5421 47.9716 13.7187 48.1306 13.8168C48.3293 13.915 48.5479 13.9738 48.7864 13.9738C49.0248 13.9738 49.2434 13.9738 49.4819 13.9738H51.6082C51.8467 13.9738 51.8467 13.9738 51.946 13.7579C52.1448 13.3262 52.3435 12.914 52.5422 12.5019L53.0191 11.4813C53.0589 11.4617 53.0788 11.4224 53.1185 11.3832Z" fill="url(#paint1_linear_115_2068)"/>
<path d="M79.7672 16.7804C79.7274 16.7804 79.6877 16.8 79.6479 16.8L76.0113 16.7804C76.0113 16.7411 76.0312 16.7019 76.0511 16.6626C76.3491 16.0346 76.6671 15.4065 76.9652 14.7589C77.303 14.072 77.621 13.385 77.9588 12.6785C78.1774 12.2271 78.396 11.7757 78.6146 11.3439C78.6543 11.285 78.6742 11.2262 78.6543 11.1673C78.6146 11.1869 78.555 11.2065 78.5152 11.2458L76.8459 12.443L74.501 14.1308C74.0638 14.4449 73.6068 14.7589 73.1696 15.0925C73.0305 15.1907 72.9112 15.3084 72.8119 15.4262C72.7125 15.5243 72.6529 15.6421 72.6132 15.7598C72.5337 15.9757 72.5933 16.2112 72.7523 16.3879C72.8318 16.4664 72.9311 16.5449 73.0305 16.6037C73.11 16.643 73.1696 16.7019 73.2292 16.7608C73.1895 16.7804 73.1497 16.7804 73.1298 16.7804C72.4542 16.7804 71.7984 16.7804 71.1227 16.7608H69.056C68.7579 16.1131 68.4996 15.4458 68.281 14.7589C68.3208 14.7196 68.3605 14.7 68.4002 14.6607L71.8779 12.1682L75.594 9.49907C76.3491 8.94954 77.1043 8.41963 77.8594 7.8701C78.5351 7.39907 79.3101 7.06542 80.1447 6.94767C80.264 6.92804 80.3633 6.92804 80.4826 6.92804C81.039 6.92804 81.6153 6.92804 82.1717 6.92804C82.2909 6.92804 82.4102 6.96729 82.5095 7.02617C82.8474 7.26168 83.2051 7.4972 83.5429 7.73271C83.5628 7.75234 83.6025 7.77197 83.6224 7.79159C83.8012 7.90935 83.8807 8.10561 83.8211 8.30187C83.8012 8.41963 83.7615 8.51776 83.7217 8.61589C83.523 9.02804 83.3243 9.44019 83.1256 9.85234C82.9467 10.2056 82.7877 10.5785 82.6288 10.9318C82.5493 11.1084 82.4698 11.285 82.3903 11.4421C82.0922 12.0701 81.7941 12.6981 81.4762 13.3262C81.0787 14.1308 80.6813 14.9551 80.3037 15.7598C80.0851 16.0935 79.9261 16.4271 79.7672 16.7804Z" fill="white"/>
<path d="M103.733 10.6766C103.713 10.7355 103.693 10.7748 103.693 10.814C103.535 11.1477 103.376 11.5009 103.177 11.8346C102.879 12.4234 102.322 12.8355 101.686 12.9729C101.567 12.9925 101.448 13.0121 101.309 13.0121H97.1754C96.8376 13.0121 96.8972 12.9729 96.7581 13.2869C96.5196 13.7972 96.2613 14.3075 96.0228 14.8177C95.7843 15.328 95.526 15.8383 95.2875 16.3486C95.208 16.5056 95.1286 16.6626 95.0689 16.8L95.0491 16.8196H95.0292H91.4124H91.2932C91.2932 16.7804 91.3131 16.7411 91.333 16.6822C91.4721 16.3682 91.631 16.0738 91.7701 15.7598L92.6644 13.8757C92.8234 13.542 92.9824 13.228 93.1413 12.8944L93.8567 11.4028C94.0157 11.0888 94.1548 10.7748 94.3138 10.4607C94.5721 9.91121 94.8503 9.36168 95.0888 8.81214C95.2875 8.41962 95.2677 7.94859 95.0491 7.57569C94.9696 7.41868 94.8503 7.30093 94.7112 7.2028C94.592 7.12429 94.4926 7.04579 94.3535 6.96728C94.3933 6.94766 94.4529 6.94766 94.4926 6.94766C95.2279 6.94766 95.9433 6.92803 96.6786 6.94766C98.328 6.98691 99.9973 6.96728 101.647 6.96728C103.296 6.96728 104.945 6.96728 106.595 6.96728C106.694 6.94766 106.774 6.96728 106.853 7.00654C106.794 7.12429 106.754 7.24205 106.694 7.35981C106.515 7.7327 106.337 8.1056 106.138 8.49812C105.939 8.9299 105.601 9.26354 105.184 9.49906C104.886 9.67569 104.548 9.77382 104.19 9.77382H98.4273C98.2684 10.0878 98.1094 10.3822 97.9703 10.7159C98.0299 10.7159 98.0895 10.7355 98.1491 10.7355H103.713L103.733 10.6766Z" fill="white"/>
<path d="M83.7616 6.90842H83.8808H84.0398C85.4904 6.90842 86.9411 6.92804 88.3918 6.92804C89.8425 6.92804 91.2931 6.92804 92.7438 6.92804C92.863 6.92804 92.9624 6.94767 93.0618 7.00655C93.4195 7.26169 93.7772 7.4972 94.1349 7.73272C94.3535 7.8701 94.4528 8.14487 94.3733 8.38038C94.3535 8.45888 94.3137 8.53739 94.274 8.61589C94.0951 8.96916 93.9361 9.32244 93.7573 9.67571C93.6778 9.69533 93.5983 9.71496 93.5188 9.69533H88.0937C88.0341 9.69533 87.9546 9.69533 87.895 9.69533C87.736 9.9701 87.6168 10.2449 87.4777 10.5196C87.4578 10.5589 87.4578 10.5785 87.4578 10.6178C87.6366 10.6374 87.7956 10.657 87.9745 10.6374C88.1533 10.6374 88.3123 10.6374 88.4911 10.6374H93.1611C93.1611 10.657 93.1611 10.6766 93.1611 10.7159C92.9823 11.0888 92.8034 11.4813 92.6047 11.8346C92.3066 12.3841 91.7701 12.7963 91.154 12.914C91.0149 12.9337 90.8758 12.9533 90.7367 12.9533H86.4244C86.3648 12.9533 86.2853 12.9925 86.2655 13.0514C86.2058 13.1692 86.1661 13.2869 86.1065 13.3851C85.7885 14.0523 85.4706 14.7 85.1526 15.3673C84.9539 15.7991 84.7353 16.2308 84.5366 16.6626C84.5167 16.6822 84.5167 16.7019 84.4968 16.7215C84.3378 16.7411 80.9397 16.7411 80.741 16.7215C80.741 16.643 80.7608 16.5841 80.8006 16.5252C81.0987 15.9168 81.3968 15.2888 81.6948 14.6804L82.907 12.1879C83.2846 11.4028 83.6622 10.6178 84.0596 9.81309C84.2186 9.47944 84.3776 9.12617 84.5366 8.79253C84.6757 8.49814 84.7154 8.16449 84.6359 7.85047C84.5763 7.53645 84.3975 7.28131 84.1192 7.10468C83.9801 7.06543 83.8808 7.00655 83.7616 6.90842Z" fill="white"/>
<path d="M112.874 14.0131C112.854 14.072 112.835 14.1308 112.815 14.1897C112.676 14.543 112.596 14.9159 112.576 15.2888C112.556 15.7206 112.676 16.172 112.914 16.5449C112.954 16.6037 112.994 16.6626 113.033 16.7215C113.013 16.7804 112.974 16.7607 112.934 16.7607C112.914 16.7607 112.914 16.7607 112.894 16.7607C110.49 16.7607 108.065 16.7607 105.661 16.7607C105.343 16.7607 105.005 16.7019 104.727 16.5449C104.309 16.3486 104.051 15.9364 104.051 15.485C104.031 15.1514 104.091 14.7981 104.23 14.4841C104.349 14.2093 104.468 13.9346 104.608 13.6598C104.925 12.9729 105.263 12.286 105.601 11.5991C105.82 11.1477 106.038 10.6963 106.257 10.2449C106.476 9.79345 106.714 9.34205 106.913 8.87102C107.191 8.22336 107.529 7.61495 107.807 6.96729C107.827 6.92803 107.847 6.90841 107.867 6.86916C107.906 6.86916 107.946 6.84953 107.986 6.84953C108.284 6.8299 108.562 6.84953 108.86 6.86916C108.92 6.86916 108.979 6.86916 109.039 6.86916H111.424C111.503 6.86916 111.583 6.86916 111.642 6.88878C111.622 6.92803 111.622 6.96729 111.603 7.00654C111.384 7.45794 111.165 7.92897 110.927 8.38037L110.053 10.2056C109.834 10.6374 109.615 11.0888 109.417 11.5402C109.178 12.0308 108.94 12.5411 108.701 13.0318C108.602 13.2477 108.483 13.4832 108.363 13.6991C108.324 13.7579 108.304 13.8364 108.304 13.9149C108.324 13.9346 108.363 13.9346 108.403 13.9346C108.463 13.9346 108.542 13.9346 108.602 13.9346H112.676C112.735 13.9738 112.815 13.9935 112.874 14.0131Z" fill="white"/>
<path d="M14.8445 6.31963C13.7515 6.3 12.738 6.79066 12.0624 7.63458C11.7841 8.02711 10.5123 10.4411 10.5123 10.4411H20.051C19.9715 10.5589 19.9119 10.657 19.8125 10.7551C18.7792 11.9916 17.5074 12.5804 15.9573 12.5804C15.9573 12.5804 5.74298 12.5804 5.16669 12.6393C3.61665 12.8159 2.18585 13.5421 1.15249 14.6804L1.13262 14.7C0.755049 15.0533 0.456965 15.4851 0.278115 15.9757L0.0197754 16.7608H9.10139C11.5656 16.7608 14.0297 16.7608 16.474 16.7608H16.4939C17.6067 16.7608 18.6997 16.5645 19.7529 16.172C21.919 15.3673 23.6876 13.7776 24.721 11.7168C25.178 10.8336 27.364 6.31963 27.364 6.31963C27.364 6.31963 15.2419 6.31963 14.8445 6.31963Z" fill="white"/>
<path d="M5.42519 10.4804C5.2066 10.4804 5.00788 10.4804 4.80915 10.4804C4.61043 10.4804 4.41171 10.4804 4.19311 10.4804C4.01426 10.4804 3.85529 10.4607 3.71618 10.4411L2.94116 10.343C2.94116 10.343 4.72966 6.61402 5.36558 5.33832C6.37906 3.27757 7.86948 1.76636 9.79709 0.843925C10.9696 0.294393 12.2612 0 13.5728 0C18.6601 0 28.5565 0.0196262 29.4706 0.0196262H30.4046L30.0072 0.863551C29.2719 2.41402 27.8013 4.1215 25.9334 4.21963L25.3173 4.25888C24.8006 4.2785 24.4032 4.29813 24.1051 4.29813H14.328C12.6786 4.29813 11.367 4.98505 10.3138 6.3785C10.1747 6.59439 9.32015 8.28224 9.1413 8.59626C8.54514 9.7542 7.37267 10.4804 6.06111 10.4804C5.84251 10.4804 5.64379 10.4804 5.42519 10.4804Z" fill="url(#paint2_linear_115_2068)"/>
</g>
<defs>
<linearGradient id="paint0_linear_115_2068" x1="31.3346" y1="11.8497" x2="46.8389" y2="11.8497" gradientUnits="userSpaceOnUse">
<stop stop-color="#AE00BF"/>
<stop offset="0.07" stop-color="#A318D1"/>
<stop offset="0.17" stop-color="#9733E5"/>
<stop offset="0.26" stop-color="#8E46F4"/>
<stop offset="0.37" stop-color="#8951FC"/>
<stop offset="0.47" stop-color="#8755FF"/>
<stop offset="1" stop-color="#3FA1FF"/>
</linearGradient>
<linearGradient id="paint1_linear_115_2068" x1="43.5247" y1="11.854" x2="57.9618" y2="11.854" gradientUnits="userSpaceOnUse">
<stop stop-color="#AE00BF"/>
<stop offset="0.07" stop-color="#A318D1"/>
<stop offset="0.17" stop-color="#9733E5"/>
<stop offset="0.26" stop-color="#8E46F4"/>
<stop offset="0.37" stop-color="#8951FC"/>
<stop offset="0.47" stop-color="#8755FF"/>
<stop offset="1" stop-color="#3FA1FF"/>
</linearGradient>
<linearGradient id="paint2_linear_115_2068" x1="2.94082" y1="5.24348" x2="30.4051" y2="5.24348" gradientUnits="userSpaceOnUse">
<stop stop-color="#AE00BF"/>
<stop offset="0.07" stop-color="#A318D1"/>
<stop offset="0.17" stop-color="#9733E5"/>
<stop offset="0.26" stop-color="#8E46F4"/>
<stop offset="0.37" stop-color="#8951FC"/>
<stop offset="0.47" stop-color="#8755FF"/>
<stop offset="1" stop-color="#3FA1FF"/>
</linearGradient>
<clipPath id="clip0_115_2068">
<rect width="140" height="16.8" fill="white"/>
</clipPath>
</defs>
</svg>
