<svg width="200" height="25" viewBox="0 0 200 25" fill="none" xmlns="http://www.w3.org/2000/svg">
<g clip-path="url(#clip0_56_456)">
<path d="M176.068 24.337C176.125 24.1947 176.182 24.0808 176.238 23.967C176.494 23.4546 176.721 22.9138 177.005 22.4014C177.488 21.519 178.282 20.8359 179.219 20.4943C179.588 20.352 179.986 20.2951 180.383 20.2951C183.392 20.2951 186.373 20.2951 189.383 20.2951C189.524 20.2951 189.666 20.2951 189.808 20.2666C190.064 20.2381 190.291 20.0674 190.376 19.8112C190.461 19.6973 190.405 19.5265 190.291 19.4411C190.263 19.4127 190.234 19.4127 190.206 19.4127C190.149 19.3842 190.092 19.3842 190.035 19.3842C189.553 19.3557 189.07 19.2988 188.588 19.2704C188.105 19.2419 187.594 19.185 187.111 19.128L186.118 19.0426L184.528 18.9003C184.187 18.8719 183.847 18.8434 183.506 18.8149C182.967 18.758 182.427 18.7295 181.859 18.6441C181.49 18.5872 181.15 18.4734 180.866 18.2456C180.355 17.9041 180.043 17.3348 180.043 16.737C180.043 16.1108 180.185 15.5131 180.468 14.9438C180.696 14.4599 180.923 13.976 181.15 13.4636C181.405 12.9513 181.718 12.4958 182.087 12.0689C182.683 11.3573 183.449 10.8164 184.301 10.4464C184.925 10.1618 185.635 10.0194 186.317 10.0194H199.972C199.972 10.0764 199.943 10.1333 199.915 10.1902C199.688 10.7026 199.461 11.2149 199.205 11.6988C198.666 12.8374 197.672 13.6629 196.451 13.9475C196.196 14.0044 195.94 14.0329 195.656 14.0329H186.969C186.884 14.0329 186.799 14.0329 186.714 14.0329C186.487 14.0614 186.26 14.1752 186.118 14.3745C186.089 14.4029 186.089 14.4314 186.061 14.4599C185.976 14.6022 186.004 14.773 186.146 14.8584C186.203 14.8868 186.231 14.9153 186.288 14.9153C186.515 14.9438 186.771 14.9722 186.998 14.9722L188.559 15.1146L190.149 15.2569L191.71 15.3992C192.25 15.4561 192.789 15.4846 193.357 15.5415C193.726 15.57 194.095 15.6269 194.436 15.7123C194.72 15.7977 194.975 15.94 195.231 16.1108C195.628 16.3955 195.884 16.8509 195.94 17.3348C196.026 17.961 195.912 18.5587 195.656 19.128C195.486 19.5265 195.287 19.925 195.117 20.3235C194.975 20.6366 194.805 20.9782 194.634 21.2913C193.925 22.5438 192.789 23.4831 191.455 23.9954C190.887 24.1947 190.291 24.3085 189.695 24.3085L176.068 24.337Z" fill="white"/>
<path d="M82.7537 10.0195H83.0944C84.0028 10.0195 84.9396 9.99099 85.8481 10.0195C88.1192 10.0764 90.3619 10.0479 92.633 10.0479C94.9042 10.0479 97.1469 10.0479 99.418 10.0479C99.8438 10.0479 100.241 10.1333 100.639 10.2756C101.405 10.5603 101.888 11.2719 101.888 12.0689C101.888 12.6666 101.774 13.2644 101.519 13.8052C101.405 14.0614 101.292 14.3176 101.178 14.5453C100.923 15.143 100.61 15.7123 100.27 16.2816C99.3044 17.8187 97.7998 18.9003 96.0397 19.3558C95.8978 19.3842 95.7274 19.4127 95.5855 19.4696C95.5571 19.555 95.5855 19.6689 95.6423 19.7543C95.9829 20.6651 96.3236 21.576 96.6643 22.4868C96.863 22.9992 97.0617 23.54 97.2604 24.0524C97.2888 24.1378 97.3456 24.1947 97.2888 24.2801C97.0901 24.3086 92.0937 24.337 91.6678 24.3086C91.5827 24.2516 91.5543 24.1662 91.5259 24.0808L89.0844 17.5625L88.8005 16.794C88.8005 16.737 88.7722 16.7086 88.7722 16.6516H89.0844C90.6458 16.6516 92.1788 16.6516 93.7402 16.6516C94.1093 16.6516 94.4499 16.5378 94.7338 16.3101C94.9042 16.1962 95.0177 16.0254 95.1029 15.8546C95.2448 15.5985 95.3868 15.3138 95.5287 15.0576C95.5855 14.9723 95.6139 14.8584 95.6423 14.773C95.7274 14.5168 95.5855 14.2606 95.33 14.2037C95.3016 14.2037 95.3016 14.2037 95.2732 14.2037C95.1597 14.1753 95.0461 14.1468 94.9325 14.1468H88.6586C88.5734 14.2037 88.4883 14.3176 88.4599 14.4314C88.2612 14.8584 88.0624 15.2854 87.8637 15.7123L87.154 17.0786C86.7281 17.9895 86.3023 18.8719 85.8765 19.7827C85.6494 20.2666 85.4223 20.7505 85.1951 21.2059C85.0816 21.4337 84.9964 21.6898 84.9113 21.946C84.7977 22.2876 84.7977 22.6292 84.8829 22.9707C84.9964 23.3977 85.2519 23.7677 85.621 24.0239L85.9049 24.2232C85.9333 24.2516 85.99 24.3086 86.0184 24.337C85.9616 24.337 85.9333 24.3655 85.8765 24.3655L78.2966 24.337C78.2966 24.2801 78.325 24.2232 78.3534 24.1947L79.0064 22.7715C79.4322 21.8891 79.858 20.9782 80.2839 20.0958C80.5677 19.4981 80.8516 18.9003 81.1355 18.331C81.4478 17.6479 81.7601 16.9648 82.1008 16.3101C82.3279 15.8546 82.5266 15.3992 82.7537 14.9438C83.0944 14.2606 83.435 13.549 83.7473 12.8374C83.946 12.4105 84.0028 11.955 83.9176 11.4996C83.8325 11.0726 83.6054 10.6741 83.2363 10.418L82.7821 10.0764C82.7821 10.0479 82.7537 10.0479 82.7537 10.0195Z" fill="white"/>
<path d="M56.6643 20.2666C57.2888 19.0142 57.8566 17.7617 58.4528 16.5093H62.7679C62.7395 16.6232 62.7111 16.7086 62.6543 16.794C62.3137 17.5056 62.0014 18.1887 61.6607 18.9003C61.32 19.6119 61.0929 20.352 61.0078 21.1205C60.9794 21.4906 60.9794 21.8606 61.0362 22.2306C61.0645 22.4014 61.0362 22.5437 60.9794 22.6861C60.7523 23.1415 60.5535 23.5685 60.3548 24.0239C60.3264 24.1093 60.2697 24.2231 60.2129 24.3085H59.8722H55.1313C52.7466 24.3085 50.3335 24.3085 47.9489 24.3085C47.2959 24.3085 46.643 24.1662 46.0752 23.8816C45.3371 23.5115 44.8545 22.7999 44.8261 21.9745C44.7693 21.2344 44.8829 20.4943 45.1951 19.8112C45.4222 19.2703 45.6777 18.758 45.9049 18.2456C46.2455 17.5056 46.5862 16.737 46.9552 15.997C47.2391 15.3423 47.5798 14.6876 47.9489 14.0898C48.176 13.7483 48.4315 13.4067 48.687 13.0936C49.4819 12.1543 50.4755 11.3857 51.5826 10.8449C52.4627 10.3895 53.4563 10.1333 54.4499 10.0764C54.5635 10.0764 54.6486 10.0764 54.7622 10.0764H66.6572C66.7707 10.0479 66.8843 10.0764 66.9694 10.1048C66.9411 10.1902 66.9127 10.2756 66.8843 10.3325C66.8275 10.4464 66.7707 10.5603 66.7139 10.7026C66.6004 10.9872 66.4017 11.2149 66.1746 11.3857C65.6352 11.8696 65.1242 12.4104 64.6983 13.0082C64.4996 13.2644 64.3293 13.549 64.1589 13.8052C64.1022 13.9191 64.017 13.976 63.9034 14.0044C63.6479 14.0614 63.3924 14.0898 63.1369 14.1183C60.5252 14.1183 57.9418 14.1183 55.33 14.1183C54.166 14.0898 53.0873 14.7161 52.5195 15.7408C52.4059 15.94 52.2924 16.1677 52.2072 16.367C51.8665 17.0786 51.5543 17.7617 51.2136 18.4733C51.1284 18.6441 51.0716 18.8149 51.0149 19.0142C50.8445 19.5265 51.1 20.0674 51.611 20.2381C51.6962 20.2666 51.7814 20.2951 51.8381 20.2951C52.0369 20.3235 52.2072 20.352 52.4059 20.352C53.7118 20.352 55.0177 20.352 56.3236 20.352C56.4088 20.2951 56.5223 20.2666 56.6643 20.2666Z" fill="url(#paint0_linear_56_456)"/>
<path d="M165.053 10.0194H165.224H165.394C171.043 10.0764 176.693 10.0479 182.342 10.0479H182.626L182.456 10.1902C182.172 10.4464 181.86 10.6741 181.576 10.9588C180.951 11.585 180.412 12.3251 180.071 13.1505C179.957 13.3782 179.844 13.6344 179.73 13.8621C179.702 13.9475 179.645 14.0044 179.588 14.0898H170.987C170.703 14.5168 170.504 14.9722 170.334 15.4561C170.39 15.4561 170.419 15.4846 170.476 15.4846H178.879C178.879 15.5415 178.85 15.5985 178.85 15.6554C178.595 16.1677 178.368 16.7086 178.084 17.2209C177.658 18.0179 176.92 18.5872 176.04 18.7865C175.841 18.8434 175.642 18.8434 175.444 18.8434H169.141C168.574 18.8434 168.687 18.8149 168.46 19.2704C168.318 19.555 168.204 19.8112 168.063 20.0958C168.034 20.1527 168.006 20.2097 168.006 20.2666C168.063 20.2951 168.119 20.2951 168.176 20.3235C168.261 20.3235 168.375 20.3235 168.46 20.3235H177.147C177.119 20.3805 177.09 20.4089 177.062 20.4659C176.494 20.9497 176.068 21.576 175.756 22.2306C175.529 22.7145 175.302 23.1984 175.075 23.7108L174.904 24.0808C174.847 24.1947 174.791 24.2801 174.734 24.3939H164.344C163.946 24.3939 163.549 24.337 163.18 24.1947C162.47 23.967 161.987 23.2838 161.987 22.5438C161.987 22.1453 162.044 21.7467 162.158 21.3767C162.271 21.0636 162.385 20.779 162.527 20.4943C162.896 19.7258 163.265 18.9572 163.605 18.1887L164.713 15.8262C164.798 15.5985 164.911 15.3992 165.025 15.1715C165.366 14.4314 165.735 13.6913 166.075 12.9513C166.274 12.5243 166.331 12.0689 166.246 11.6134C166.16 11.1865 165.933 10.8164 165.593 10.5318C165.451 10.3041 165.28 10.1902 165.053 10.0194Z" fill="white"/>
<path d="M75.8836 16.5093H80.6814C80.6246 16.7655 77.1044 24.1378 76.9908 24.337H76.7353C72.9312 24.337 69.1271 24.337 65.3229 24.337C64.8119 24.337 64.3293 24.2516 63.8467 24.0808C63.2222 23.8816 62.7112 23.4262 62.4273 22.8569C62.3137 22.6007 62.2286 22.3445 62.2002 22.0599C62.1434 21.3767 62.2286 20.6936 62.4841 20.0674C62.5976 19.7258 62.7396 19.4127 62.9099 19.0711C63.3925 18.0179 63.9035 16.9647 64.3861 15.9116C64.6132 15.4561 64.8119 15.0007 65.0391 14.5453C65.7204 13.3498 66.6288 12.3251 67.7644 11.5565C68.7012 10.9018 69.7516 10.4179 70.8872 10.1902C71.3414 10.1048 71.824 10.0479 72.3066 10.0479C74.9752 10.0479 77.6437 10.0479 80.3123 10.0479C80.5394 10.0479 80.7665 10.1048 80.9652 10.2472C81.4195 10.5887 81.8737 10.8734 82.3563 11.1865H82.3847C82.7537 11.3857 82.8957 11.8127 82.7254 12.1827C82.697 12.2681 82.6686 12.382 82.6118 12.4674C82.4699 12.7805 82.2995 13.0936 82.1576 13.4067C82.1008 13.549 81.9872 13.6344 81.8737 13.6913C81.4762 13.8906 81.022 14.0045 80.5678 14.0329C77.956 14.0329 75.3726 14.0329 72.7608 14.0329C71.3982 14.0329 70.4329 14.6876 69.8084 15.8546C69.5813 16.2816 69.4109 16.7086 69.1838 17.1355C68.9567 17.5625 68.7864 18.0179 68.5593 18.4449C68.4173 18.7295 68.3322 19.0426 68.3606 19.3558C68.3606 19.6404 68.5309 19.8966 68.758 20.0389C69.0419 20.1812 69.3542 20.2666 69.6948 20.2666C70.0355 20.2666 70.3478 20.2666 70.6884 20.2666H73.7261C74.0667 20.2666 74.0667 20.2666 74.2087 19.9535C74.4926 19.3273 74.7765 18.7295 75.0603 18.1318L75.7417 16.6516C75.7985 16.6232 75.8268 16.5662 75.8836 16.5093Z" fill="url(#paint1_linear_56_456)"/>
<path d="M113.953 24.337C113.896 24.337 113.84 24.3655 113.783 24.3655L108.588 24.337C108.588 24.2801 108.616 24.2232 108.645 24.1662C109.07 23.2554 109.525 22.3445 109.95 21.4052C110.433 20.4089 110.887 19.4127 111.37 18.388C111.682 17.7333 111.994 17.0786 112.307 16.4524C112.363 16.367 112.392 16.2816 112.363 16.1962C112.307 16.2247 112.222 16.2531 112.165 16.3101L109.78 18.0464L106.43 20.4943C105.806 20.9498 105.153 21.4052 104.528 21.8891C104.329 22.0314 104.159 22.2022 104.017 22.373C103.875 22.5153 103.79 22.6861 103.733 22.8569C103.62 23.17 103.705 23.5115 103.932 23.7677C104.045 23.8816 104.187 23.9954 104.329 24.0808C104.443 24.1378 104.528 24.2232 104.613 24.3086C104.556 24.337 104.5 24.337 104.471 24.337C103.506 24.337 102.569 24.337 101.604 24.3086H98.6516C98.2258 23.3692 97.8567 22.4014 97.5444 21.4052C97.6012 21.3483 97.658 21.3198 97.7148 21.2629L102.683 17.6479L107.992 13.7767C109.07 12.9797 110.149 12.2112 111.228 11.4142C112.193 10.7311 113.3 10.2472 114.493 10.0764C114.663 10.0479 114.805 10.0479 114.975 10.0479C115.77 10.0479 116.593 10.0479 117.388 10.0479C117.559 10.0479 117.729 10.1048 117.871 10.1902C118.354 10.5318 118.865 10.8734 119.347 11.215C119.376 11.2434 119.432 11.2719 119.461 11.3003C119.716 11.4711 119.83 11.7558 119.745 12.0404C119.716 12.2112 119.659 12.3535 119.603 12.4958C119.319 13.0936 119.035 13.6913 118.751 14.2891C118.495 14.8015 118.268 15.3423 118.041 15.8546C117.928 16.1108 117.814 16.367 117.701 16.5947C117.275 17.5056 116.849 18.4164 116.395 19.3273C115.827 20.4943 115.259 21.6898 114.72 22.8569C114.407 23.3408 114.18 23.8247 113.953 24.337Z" fill="white"/>
<path d="M148.19 15.4846C148.162 15.57 148.133 15.6269 148.133 15.6838C147.906 16.1677 147.679 16.6801 147.395 17.164C146.969 18.0179 146.175 18.6157 145.266 18.8149C145.096 18.8434 144.925 18.8719 144.727 18.8719H138.822C138.339 18.8719 138.424 18.8149 138.226 19.2704C137.885 20.0104 137.516 20.7505 137.175 21.4906C136.835 22.2306 136.466 22.9707 136.125 23.7108C136.011 23.9385 135.898 24.1662 135.813 24.3655L135.784 24.3939H135.756H130.589H130.419C130.419 24.337 130.447 24.2801 130.475 24.1947C130.674 23.7393 130.901 23.3123 131.1 22.8569L132.378 20.1243C132.605 19.6404 132.832 19.185 133.059 18.7011L134.081 16.5378C134.308 16.0823 134.507 15.6269 134.734 15.1715C135.103 14.3745 135.5 13.5775 135.841 12.7805C136.125 12.2112 136.096 11.5281 135.784 10.9872C135.671 10.7595 135.5 10.5887 135.302 10.4464C135.131 10.3326 134.989 10.2187 134.791 10.1048C134.847 10.0764 134.933 10.0764 134.989 10.0764C136.04 10.0764 137.062 10.0479 138.112 10.0764C140.468 10.1333 142.853 10.1048 145.209 10.1048C147.566 10.1048 149.922 10.1048 152.278 10.1048C152.42 10.0764 152.534 10.1048 152.647 10.1618C152.562 10.3326 152.505 10.5033 152.42 10.6741C152.165 11.2149 151.909 11.7558 151.625 12.3251C151.341 12.9513 150.859 13.4352 150.263 13.7767C149.837 14.0329 149.354 14.1752 148.843 14.1752H140.61C140.383 14.6307 140.156 15.0576 139.957 15.5415C140.043 15.5415 140.128 15.57 140.213 15.57H148.162L148.19 15.4846Z" fill="white"/>
<path d="M119.659 10.0194H119.83H120.057C122.129 10.0194 124.202 10.0479 126.274 10.0479C128.346 10.0479 130.419 10.0479 132.491 10.0479C132.661 10.0479 132.803 10.0764 132.945 10.1618C133.456 10.5318 133.967 10.8734 134.478 11.2149C134.791 11.4142 134.933 11.8127 134.819 12.1543C134.791 12.2681 134.734 12.382 134.677 12.4958C134.422 13.0082 134.194 13.5206 133.939 14.0329C133.825 14.0614 133.712 14.0898 133.598 14.0614H125.848C125.763 14.0614 125.649 14.0614 125.564 14.0614C125.337 14.4599 125.167 14.8584 124.968 15.2569C124.94 15.3138 124.94 15.3423 124.94 15.3992C125.195 15.4277 125.422 15.4561 125.678 15.4277C125.933 15.4277 126.16 15.4277 126.416 15.4277H133.087C133.087 15.4561 133.087 15.4846 133.087 15.5415C132.832 16.0823 132.576 16.6516 132.292 17.164C131.867 17.961 131.1 18.5587 130.22 18.7295C130.021 18.758 129.823 18.7865 129.624 18.7865H123.463C123.378 18.7865 123.265 18.8434 123.236 18.9288C123.151 19.0996 123.094 19.2704 123.009 19.4127C122.555 20.3805 122.101 21.3198 121.647 22.2876C121.363 22.9138 121.05 23.54 120.767 24.1662C120.738 24.1947 120.738 24.2231 120.71 24.2516C120.483 24.2801 115.628 24.2801 115.344 24.2516C115.344 24.1378 115.373 24.0524 115.429 23.967C115.855 23.0846 116.281 22.1737 116.707 21.2913L118.439 17.6763C118.978 16.5378 119.517 15.3992 120.085 14.2322C120.312 13.7483 120.539 13.2359 120.767 12.752C120.965 12.3251 121.022 11.8412 120.908 11.3857C120.823 10.9303 120.568 10.5603 120.17 10.3041C119.972 10.2472 119.83 10.1618 119.659 10.0194Z" fill="white"/>
<path d="M161.249 20.3235C161.221 20.4089 161.192 20.4943 161.164 20.5797C160.965 21.0921 160.852 21.6329 160.823 22.1737C160.795 22.7999 160.965 23.4546 161.306 23.9955C161.363 24.0808 161.42 24.1662 161.476 24.2516C161.448 24.337 161.391 24.3086 161.334 24.3086C161.306 24.3086 161.306 24.3086 161.278 24.3086C157.842 24.3086 154.379 24.3086 150.944 24.3086C150.49 24.3086 150.007 24.2232 149.61 23.9955C149.014 23.7108 148.644 23.1131 148.644 22.4584C148.616 21.9745 148.701 21.4621 148.9 21.0067C149.07 20.6082 149.241 20.2097 149.439 19.8112C149.894 18.8149 150.376 17.8187 150.859 16.8224C151.171 16.1678 151.483 15.5131 151.796 14.8584C152.108 14.2037 152.449 13.549 152.732 12.8659C153.13 11.9266 153.613 11.0442 154.01 10.1048C154.038 10.0479 154.067 10.0195 154.095 9.96253C154.152 9.96253 154.209 9.93406 154.266 9.93406C154.691 9.9056 155.089 9.93406 155.515 9.96253C155.6 9.96253 155.685 9.96253 155.77 9.96253H159.177C159.29 9.96253 159.404 9.96253 159.489 9.99099C159.461 10.0479 159.461 10.1048 159.432 10.1618C159.12 10.8165 158.808 11.4996 158.467 12.1543L157.218 14.8015C156.906 15.4277 156.593 16.0824 156.309 16.737C155.969 17.4486 155.628 18.1887 155.287 18.9003C155.146 19.2134 154.975 19.555 154.805 19.8681C154.748 19.9535 154.72 20.0674 154.72 20.1812C154.748 20.2097 154.805 20.2097 154.862 20.2097C154.947 20.2097 155.06 20.2097 155.146 20.2097H160.965C161.05 20.2666 161.164 20.2951 161.249 20.3235Z" fill="white"/>
<path d="M21.2065 9.16553C19.6451 9.13706 18.1972 9.84867 17.232 11.0726C16.8346 11.6419 15.0177 15.143 15.0177 15.143H28.6444C28.5308 15.3138 28.4456 15.4561 28.3037 15.5985C26.8275 17.3917 25.0106 18.2457 22.7962 18.2457C22.7962 18.2457 8.20433 18.2457 7.38105 18.331C5.16672 18.5872 3.12271 19.6404 1.64649 21.2913L1.6181 21.3198C1.07871 21.8322 0.652877 22.4584 0.397376 23.17L0.0283203 24.3086H13.0021C16.5223 24.3086 20.0425 24.3086 23.5344 24.3086H23.5627C25.1525 24.3086 26.7139 24.0239 28.2185 23.4546C31.3129 22.2876 33.8395 19.982 35.3158 16.9932C35.9687 15.7123 39.0915 9.16553 39.0915 9.16553C39.0915 9.16553 21.7742 9.16553 21.2065 9.16553Z" fill="white"/>
<path d="M7.75028 15.2C7.438 15.2 7.15411 15.2 6.87022 15.2C6.58633 15.2 6.30244 15.2 5.99016 15.2C5.73466 15.2 5.50755 15.1715 5.30883 15.143L4.20166 15.0007C4.20166 15.0007 6.75666 9.59249 7.66511 7.7423C9.11295 4.75355 11.2421 2.56179 13.9958 1.22397C15.6708 0.426965 17.5161 0 19.3897 0C26.6573 0 40.795 0.0284644 42.1009 0.0284644H43.4352L42.8674 1.25243C41.817 3.50112 39.7162 5.97751 37.0476 6.11984L36.1676 6.17676C35.4295 6.20523 34.8617 6.23369 34.4359 6.23369H20.4685C18.1122 6.23369 16.2386 7.22995 14.734 9.25091C14.5352 9.56402 13.3145 12.012 13.059 12.4674C12.2073 14.1468 10.5324 15.2 8.65872 15.2C8.34644 15.2 8.06255 15.2 7.75028 15.2Z" fill="url(#paint2_linear_56_456)"/>
</g>
<defs>
<linearGradient id="paint0_linear_56_456" x1="44.7637" y1="17.1859" x2="66.9127" y2="17.1859" gradientUnits="userSpaceOnUse">
<stop stop-color="#AE00BF"/>
<stop offset="0.07" stop-color="#A318D1"/>
<stop offset="0.17" stop-color="#9733E5"/>
<stop offset="0.26" stop-color="#8E46F4"/>
<stop offset="0.37" stop-color="#8951FC"/>
<stop offset="0.47" stop-color="#8755FF"/>
<stop offset="1" stop-color="#3FA1FF"/>
</linearGradient>
<linearGradient id="paint1_linear_56_456" x1="62.1782" y1="17.1922" x2="82.8027" y2="17.1922" gradientUnits="userSpaceOnUse">
<stop stop-color="#AE00BF"/>
<stop offset="0.07" stop-color="#A318D1"/>
<stop offset="0.17" stop-color="#9733E5"/>
<stop offset="0.26" stop-color="#8E46F4"/>
<stop offset="0.37" stop-color="#8951FC"/>
<stop offset="0.47" stop-color="#8755FF"/>
<stop offset="1" stop-color="#3FA1FF"/>
</linearGradient>
<linearGradient id="paint2_linear_56_456" x1="4.20118" y1="7.60476" x2="43.4358" y2="7.60476" gradientUnits="userSpaceOnUse">
<stop stop-color="#AE00BF"/>
<stop offset="0.07" stop-color="#A318D1"/>
<stop offset="0.17" stop-color="#9733E5"/>
<stop offset="0.26" stop-color="#8E46F4"/>
<stop offset="0.37" stop-color="#8951FC"/>
<stop offset="0.47" stop-color="#8755FF"/>
<stop offset="1" stop-color="#3FA1FF"/>
</linearGradient>
<clipPath id="clip0_56_456">
<rect width="200" height="24.3655" fill="white"/>
</clipPath>
</defs>
</svg>
